<mxfile host="65bd71144e">
    <diagram id="OviwAwJIlWLO5kreHt0O" name="Page-1">
        <mxGraphModel dx="2092" dy="1663" grid="1" gridSize="10" guides="1" tooltips="1" connect="1" arrows="1" fold="1" page="1" pageScale="1" pageWidth="850" pageHeight="1100" math="0" shadow="0">
            <root>
                <mxCell id="0"/>
                <mxCell id="1" parent="0"/>
                <mxCell id="2" value="Actor" style="shape=umlActor;verticalLabelPosition=bottom;verticalAlign=top;html=1;outlineConnect=0;" parent="1" vertex="1">
                    <mxGeometry x="110" y="160" width="30" height="60" as="geometry"/>
                </mxCell>
                <mxCell id="3" value="quản trị viên" style="text;html=1;align=center;verticalAlign=middle;resizable=0;points=[];autosize=1;strokeColor=none;fillColor=none;" parent="1" vertex="1">
                    <mxGeometry x="75" y="245" width="90" height="30" as="geometry"/>
                </mxCell>
                <mxCell id="4" value="quản lí khách hàng" style="ellipse;whiteSpace=wrap;html=1;" parent="1" vertex="1">
                    <mxGeometry x="210" y="290" width="120" height="80" as="geometry"/>
                </mxCell>
                <mxCell id="5" value="quản lí thông tin chuyến bay" style="ellipse;whiteSpace=wrap;html=1;" parent="1" vertex="1">
                    <mxGeometry x="250" y="50" width="120" height="80" as="geometry"/>
                </mxCell>
                <mxCell id="6" value="quản lí đặt vé" style="ellipse;whiteSpace=wrap;html=1;" parent="1" vertex="1">
                    <mxGeometry x="-50" y="310" width="120" height="80" as="geometry"/>
                </mxCell>
                <mxCell id="7" value="" style="endArrow=classic;html=1;entryX=0.743;entryY=0.025;entryDx=0;entryDy=0;entryPerimeter=0;" parent="1" target="6" edge="1">
                    <mxGeometry width="50" height="50" relative="1" as="geometry">
                        <mxPoint x="130" y="200" as="sourcePoint"/>
                        <mxPoint x="180" y="150" as="targetPoint"/>
                    </mxGeometry>
                </mxCell>
                <mxCell id="8" value="" style="endArrow=classic;html=1;" parent="1" target="4" edge="1">
                    <mxGeometry width="50" height="50" relative="1" as="geometry">
                        <mxPoint x="130" y="200" as="sourcePoint"/>
                        <mxPoint x="180" y="150" as="targetPoint"/>
                    </mxGeometry>
                </mxCell>
                <mxCell id="9" value="" style="endArrow=classic;html=1;entryX=0;entryY=1;entryDx=0;entryDy=0;" parent="1" target="5" edge="1">
                    <mxGeometry width="50" height="50" relative="1" as="geometry">
                        <mxPoint x="130" y="200" as="sourcePoint"/>
                        <mxPoint x="180" y="150" as="targetPoint"/>
                    </mxGeometry>
                </mxCell>
                <mxCell id="10" value="phi công" style="rounded=1;whiteSpace=wrap;html=1;" parent="1" vertex="1">
                    <mxGeometry x="450" y="-90" width="120" height="60" as="geometry"/>
                </mxCell>
                <mxCell id="11" value="giờ bay" style="rounded=1;whiteSpace=wrap;html=1;" parent="1" vertex="1">
                    <mxGeometry x="570" y="210" width="120" height="60" as="geometry"/>
                </mxCell>
                <mxCell id="12" value="số hành khách" style="rounded=1;whiteSpace=wrap;html=1;" parent="1" vertex="1">
                    <mxGeometry x="700" y="200" width="120" height="60" as="geometry"/>
                </mxCell>
                <mxCell id="13" value="giờ hạ cánh" style="rounded=1;whiteSpace=wrap;html=1;" parent="1" vertex="1">
                    <mxGeometry x="700" y="120" width="120" height="60" as="geometry"/>
                </mxCell>
                <mxCell id="14" value="tiếp viên hàng không" style="rounded=1;whiteSpace=wrap;html=1;" parent="1" vertex="1">
                    <mxGeometry x="440" y="210" width="120" height="60" as="geometry"/>
                </mxCell>
                <mxCell id="15" value="mã chuyến bay" style="rounded=1;whiteSpace=wrap;html=1;fontStyle=0" parent="1" vertex="1">
                    <mxGeometry x="640" y="-90" width="120" height="60" as="geometry"/>
                </mxCell>
                <mxCell id="16" value="địa điểm hạ cánh" style="rounded=1;whiteSpace=wrap;html=1;" parent="1" vertex="1">
                    <mxGeometry x="700" y="50" width="120" height="60" as="geometry"/>
                </mxCell>
                <mxCell id="18" value="" style="endArrow=classic;html=1;entryX=0.96;entryY=0.225;entryDx=0;entryDy=0;entryPerimeter=0;exitX=0;exitY=1;exitDx=0;exitDy=0;" parent="1" source="10" target="5" edge="1">
                    <mxGeometry relative="1" as="geometry">
                        <mxPoint x="425" y="29" as="sourcePoint"/>
                        <mxPoint x="525" y="29" as="targetPoint"/>
                    </mxGeometry>
                </mxCell>
                <mxCell id="19" value="include" style="edgeLabel;resizable=0;html=1;align=center;verticalAlign=middle;" parent="18" connectable="0" vertex="1">
                    <mxGeometry relative="1" as="geometry"/>
                </mxCell>
                <mxCell id="20" value="" style="endArrow=classic;html=1;exitX=0;exitY=1;exitDx=0;exitDy=0;" parent="1" target="5" edge="1">
                    <mxGeometry relative="1" as="geometry">
                        <mxPoint x="640" y="-30" as="sourcePoint"/>
                        <mxPoint x="575.2" y="48" as="targetPoint"/>
                    </mxGeometry>
                </mxCell>
                <mxCell id="21" value="include" style="edgeLabel;resizable=0;html=1;align=center;verticalAlign=middle;" parent="20" connectable="0" vertex="1">
                    <mxGeometry relative="1" as="geometry"/>
                </mxCell>
                <mxCell id="22" value="" style="endArrow=classic;html=1;exitX=0;exitY=1;exitDx=0;exitDy=0;" parent="1" target="5" edge="1">
                    <mxGeometry relative="1" as="geometry">
                        <mxPoint x="700" y="82" as="sourcePoint"/>
                        <mxPoint x="635.2" y="160" as="targetPoint"/>
                    </mxGeometry>
                </mxCell>
                <mxCell id="23" value="include" style="edgeLabel;resizable=0;html=1;align=center;verticalAlign=middle;" parent="22" connectable="0" vertex="1">
                    <mxGeometry relative="1" as="geometry"/>
                </mxCell>
                <mxCell id="24" value="" style="endArrow=classic;html=1;entryX=1;entryY=1;entryDx=0;entryDy=0;exitX=0;exitY=1;exitDx=0;exitDy=0;" parent="1" target="5" edge="1">
                    <mxGeometry relative="1" as="geometry">
                        <mxPoint x="450" y="210" as="sourcePoint"/>
                        <mxPoint x="385.20000000000005" y="288" as="targetPoint"/>
                    </mxGeometry>
                </mxCell>
                <mxCell id="25" value="include" style="edgeLabel;resizable=0;html=1;align=center;verticalAlign=middle;" parent="24" connectable="0" vertex="1">
                    <mxGeometry relative="1" as="geometry"/>
                </mxCell>
                <mxCell id="26" value="" style="endArrow=classic;html=1;exitX=0;exitY=1;exitDx=0;exitDy=0;" parent="1" target="5" edge="1">
                    <mxGeometry relative="1" as="geometry">
                        <mxPoint x="700.07" y="140.06" as="sourcePoint"/>
                        <mxPoint x="389.99912504909304" y="130.00364729888958" as="targetPoint"/>
                    </mxGeometry>
                </mxCell>
                <mxCell id="27" value="include" style="edgeLabel;resizable=0;html=1;align=center;verticalAlign=middle;" parent="26" connectable="0" vertex="1">
                    <mxGeometry relative="1" as="geometry"/>
                </mxCell>
                <mxCell id="28" value="" style="endArrow=classic;html=1;exitX=0;exitY=1;exitDx=0;exitDy=0;" parent="1" edge="1">
                    <mxGeometry relative="1" as="geometry">
                        <mxPoint x="700" y="200" as="sourcePoint"/>
                        <mxPoint x="380" y="100" as="targetPoint"/>
                    </mxGeometry>
                </mxCell>
                <mxCell id="29" value="include" style="edgeLabel;resizable=0;html=1;align=center;verticalAlign=middle;" parent="28" connectable="0" vertex="1">
                    <mxGeometry relative="1" as="geometry"/>
                </mxCell>
                <mxCell id="30" value="" style="endArrow=classic;html=1;exitX=0;exitY=1;exitDx=0;exitDy=0;entryX=1;entryY=1;entryDx=0;entryDy=0;" parent="1" target="5" edge="1">
                    <mxGeometry relative="1" as="geometry">
                        <mxPoint x="620.0699999999999" y="210.06" as="sourcePoint"/>
                        <mxPoint x="309.99912504909304" y="200.00364729888958" as="targetPoint"/>
                    </mxGeometry>
                </mxCell>
                <mxCell id="31" value="include" style="edgeLabel;resizable=0;html=1;align=center;verticalAlign=middle;" parent="30" connectable="0" vertex="1">
                    <mxGeometry relative="1" as="geometry"/>
                </mxCell>
                <mxCell id="32" value="căn cước công dân" style="rounded=1;whiteSpace=wrap;html=1;" parent="1" vertex="1">
                    <mxGeometry x="520" y="700" width="120" height="60" as="geometry"/>
                </mxCell>
                <mxCell id="33" value="số điện thoại" style="rounded=1;whiteSpace=wrap;html=1;" parent="1" vertex="1">
                    <mxGeometry x="320" y="700" width="120" height="60" as="geometry"/>
                </mxCell>
                <mxCell id="34" value="tên khách hàng" style="rounded=1;whiteSpace=wrap;html=1;" parent="1" vertex="1">
                    <mxGeometry x="120" y="700" width="120" height="60" as="geometry"/>
                </mxCell>
                <mxCell id="35" value="mã khách hàng" style="rounded=1;whiteSpace=wrap;html=1;" parent="1" vertex="1">
                    <mxGeometry x="-80" y="700" width="120" height="60" as="geometry"/>
                </mxCell>
                <mxCell id="36" value="xem thông tin khách hàng" style="ellipse;whiteSpace=wrap;html=1;" parent="1" vertex="1">
                    <mxGeometry x="45" y="460" width="120" height="80" as="geometry"/>
                </mxCell>
                <mxCell id="37" value="cập nhật thông tin khách hàng" style="ellipse;whiteSpace=wrap;html=1;" parent="1" vertex="1">
                    <mxGeometry x="460" y="510" width="120" height="80" as="geometry"/>
                </mxCell>
                <mxCell id="38" value="xóa thông tin khách hàng" style="ellipse;whiteSpace=wrap;html=1;" parent="1" vertex="1">
                    <mxGeometry x="580" y="430" width="120" height="80" as="geometry"/>
                </mxCell>
                <mxCell id="39" value="sửa thông tin khách hàng" style="ellipse;whiteSpace=wrap;html=1;" parent="1" vertex="1">
                    <mxGeometry x="270" y="470" width="120" height="80" as="geometry"/>
                </mxCell>
                <mxCell id="40" value="" style="endArrow=classic;html=1;" parent="1" target="4" edge="1">
                    <mxGeometry width="50" height="50" relative="1" as="geometry">
                        <mxPoint x="580" y="470" as="sourcePoint"/>
                        <mxPoint x="630" y="420" as="targetPoint"/>
                    </mxGeometry>
                </mxCell>
                <mxCell id="41" value="" style="endArrow=classic;html=1;" parent="1" edge="1">
                    <mxGeometry width="50" height="50" relative="1" as="geometry">
                        <mxPoint x="475" y="525" as="sourcePoint"/>
                        <mxPoint x="290" y="370" as="targetPoint"/>
                    </mxGeometry>
                </mxCell>
                <mxCell id="42" value="" style="endArrow=classic;html=1;entryX=0.677;entryY=1.015;entryDx=0;entryDy=0;entryPerimeter=0;exitX=0.5;exitY=0;exitDx=0;exitDy=0;" parent="1" source="39" target="4" edge="1">
                    <mxGeometry width="50" height="50" relative="1" as="geometry">
                        <mxPoint x="390" y="470" as="sourcePoint"/>
                        <mxPoint x="440" y="420" as="targetPoint"/>
                    </mxGeometry>
                </mxCell>
                <mxCell id="43" value="" style="endArrow=classic;html=1;" parent="1" target="4" edge="1">
                    <mxGeometry width="50" height="50" relative="1" as="geometry">
                        <mxPoint x="130" y="460" as="sourcePoint"/>
                        <mxPoint x="180" y="410" as="targetPoint"/>
                    </mxGeometry>
                </mxCell>
                <mxCell id="48" value="" style="endArrow=classic;html=1;entryX=1;entryY=1;entryDx=0;entryDy=0;" parent="1" target="36" edge="1">
                    <mxGeometry relative="1" as="geometry">
                        <mxPoint x="550" y="700" as="sourcePoint"/>
                        <mxPoint x="650" y="700" as="targetPoint"/>
                    </mxGeometry>
                </mxCell>
                <mxCell id="49" value="include" style="edgeLabel;resizable=0;html=1;align=center;verticalAlign=middle;" parent="48" connectable="0" vertex="1">
                    <mxGeometry relative="1" as="geometry"/>
                </mxCell>
                <mxCell id="50" value="" style="endArrow=classic;html=1;entryX=0.5;entryY=1;entryDx=0;entryDy=0;" parent="1" target="36" edge="1">
                    <mxGeometry relative="1" as="geometry">
                        <mxPoint x="360" y="700" as="sourcePoint"/>
                        <mxPoint x="460" y="700" as="targetPoint"/>
                    </mxGeometry>
                </mxCell>
                <mxCell id="51" value="include" style="edgeLabel;resizable=0;html=1;align=center;verticalAlign=middle;" parent="50" connectable="0" vertex="1">
                    <mxGeometry relative="1" as="geometry"/>
                </mxCell>
                <mxCell id="52" value="" style="endArrow=classic;html=1;entryX=0.5;entryY=1;entryDx=0;entryDy=0;" parent="1" target="36" edge="1">
                    <mxGeometry relative="1" as="geometry">
                        <mxPoint x="170" y="700" as="sourcePoint"/>
                        <mxPoint x="270" y="700" as="targetPoint"/>
                    </mxGeometry>
                </mxCell>
                <mxCell id="53" value="include" style="edgeLabel;resizable=0;html=1;align=center;verticalAlign=middle;" parent="52" connectable="0" vertex="1">
                    <mxGeometry relative="1" as="geometry"/>
                </mxCell>
                <mxCell id="54" value="" style="endArrow=classic;html=1;entryX=0;entryY=1;entryDx=0;entryDy=0;" parent="1" target="36" edge="1">
                    <mxGeometry relative="1" as="geometry">
                        <mxPoint x="-25" y="700" as="sourcePoint"/>
                        <mxPoint x="75" y="700" as="targetPoint"/>
                    </mxGeometry>
                </mxCell>
                <mxCell id="55" value="include" style="edgeLabel;resizable=0;html=1;align=center;verticalAlign=middle;" parent="54" connectable="0" vertex="1">
                    <mxGeometry relative="1" as="geometry"/>
                </mxCell>
                <mxCell id="56" value="mã khách hàng" style="rounded=1;whiteSpace=wrap;html=1;" parent="1" vertex="1">
                    <mxGeometry x="-400" y="700" width="120" height="60" as="geometry"/>
                </mxCell>
                <mxCell id="57" value="mã nhân viên" style="rounded=1;whiteSpace=wrap;html=1;" parent="1" vertex="1">
                    <mxGeometry x="-460" y="150" width="120" height="60" as="geometry"/>
                </mxCell>
                <mxCell id="58" value="số lượng" style="rounded=1;whiteSpace=wrap;html=1;" parent="1" vertex="1">
                    <mxGeometry x="-570" y="380" width="120" height="60" as="geometry"/>
                </mxCell>
                <mxCell id="59" value="khuyến mại" style="rounded=1;whiteSpace=wrap;html=1;" parent="1" vertex="1">
                    <mxGeometry x="-570" y="590" width="120" height="60" as="geometry"/>
                </mxCell>
                <mxCell id="60" value="tên nhân viên" style="rounded=1;whiteSpace=wrap;html=1;" parent="1" vertex="1">
                    <mxGeometry x="-120" y="150" width="120" height="60" as="geometry"/>
                </mxCell>
                <mxCell id="61" value="tổng tiền" style="rounded=1;whiteSpace=wrap;html=1;" parent="1" vertex="1">
                    <mxGeometry x="-570" y="520" width="120" height="60" as="geometry"/>
                </mxCell>
                <mxCell id="62" value="thông tin chuyến bay" style="rounded=1;whiteSpace=wrap;html=1;" parent="1" vertex="1">
                    <mxGeometry x="-570" y="310" width="120" height="60" as="geometry"/>
                </mxCell>
                <mxCell id="63" value="mã vé" style="rounded=1;whiteSpace=wrap;html=1;" parent="1" vertex="1">
                    <mxGeometry x="-280" y="150" width="120" height="60" as="geometry"/>
                </mxCell>
                <mxCell id="64" value="đơn giá" style="rounded=1;whiteSpace=wrap;html=1;" parent="1" vertex="1">
                    <mxGeometry x="-570" y="450" width="120" height="60" as="geometry"/>
                </mxCell>
                <mxCell id="65" value="tên khách hàng" style="rounded=1;whiteSpace=wrap;html=1;" parent="1" vertex="1">
                    <mxGeometry x="-240" y="700" width="120" height="60" as="geometry"/>
                </mxCell>
                <mxCell id="66" value="số điện thoại" style="rounded=1;whiteSpace=wrap;html=1;" parent="1" vertex="1">
                    <mxGeometry x="-560" y="230" width="120" height="60" as="geometry"/>
                </mxCell>
                <mxCell id="67" value="" style="endArrow=classic;html=1;entryX=0;entryY=0.5;entryDx=0;entryDy=0;" parent="1" target="6" edge="1">
                    <mxGeometry relative="1" as="geometry">
                        <mxPoint x="-450" y="339.5" as="sourcePoint"/>
                        <mxPoint x="-350" y="339.5" as="targetPoint"/>
                    </mxGeometry>
                </mxCell>
                <mxCell id="68" value="include" style="edgeLabel;resizable=0;html=1;align=center;verticalAlign=middle;" parent="67" connectable="0" vertex="1">
                    <mxGeometry relative="1" as="geometry"/>
                </mxCell>
                <mxCell id="69" value="" style="endArrow=classic;html=1;entryX=0;entryY=0;entryDx=0;entryDy=0;" parent="1" target="6" edge="1">
                    <mxGeometry relative="1" as="geometry">
                        <mxPoint x="-440" y="269" as="sourcePoint"/>
                        <mxPoint x="-340" y="269" as="targetPoint"/>
                    </mxGeometry>
                </mxCell>
                <mxCell id="70" value="extends" style="edgeLabel;resizable=0;html=1;align=center;verticalAlign=middle;" parent="69" connectable="0" vertex="1">
                    <mxGeometry relative="1" as="geometry"/>
                </mxCell>
                <mxCell id="71" value="" style="endArrow=classic;html=1;entryX=0;entryY=0;entryDx=0;entryDy=0;" parent="1" target="6" edge="1">
                    <mxGeometry relative="1" as="geometry">
                        <mxPoint x="-400" y="210" as="sourcePoint"/>
                        <mxPoint x="-300" y="210" as="targetPoint"/>
                    </mxGeometry>
                </mxCell>
                <mxCell id="72" value="include" style="edgeLabel;resizable=0;html=1;align=center;verticalAlign=middle;" parent="71" connectable="0" vertex="1">
                    <mxGeometry relative="1" as="geometry"/>
                </mxCell>
                <mxCell id="73" value="" style="endArrow=classic;html=1;entryX=0;entryY=0;entryDx=0;entryDy=0;" parent="1" target="6" edge="1">
                    <mxGeometry relative="1" as="geometry">
                        <mxPoint x="-230" y="209" as="sourcePoint"/>
                        <mxPoint x="-130" y="209" as="targetPoint"/>
                    </mxGeometry>
                </mxCell>
                <mxCell id="74" value="include" style="edgeLabel;resizable=0;html=1;align=center;verticalAlign=middle;" parent="73" connectable="0" vertex="1">
                    <mxGeometry relative="1" as="geometry"/>
                </mxCell>
                <mxCell id="75" value="" style="endArrow=classic;html=1;entryX=0;entryY=0;entryDx=0;entryDy=0;" parent="1" target="6" edge="1">
                    <mxGeometry relative="1" as="geometry">
                        <mxPoint x="-60" y="209" as="sourcePoint"/>
                        <mxPoint x="40" y="209" as="targetPoint"/>
                    </mxGeometry>
                </mxCell>
                <mxCell id="76" value="include" style="edgeLabel;resizable=0;html=1;align=center;verticalAlign=middle;" parent="75" connectable="0" vertex="1">
                    <mxGeometry relative="1" as="geometry"/>
                </mxCell>
                <mxCell id="77" value="" style="endArrow=classic;html=1;entryX=0;entryY=1;entryDx=0;entryDy=0;" parent="1" target="6" edge="1">
                    <mxGeometry relative="1" as="geometry">
                        <mxPoint x="-140" y="699" as="sourcePoint"/>
                        <mxPoint x="-40" y="699" as="targetPoint"/>
                    </mxGeometry>
                </mxCell>
                <mxCell id="78" value="include" style="edgeLabel;resizable=0;html=1;align=center;verticalAlign=middle;" parent="77" connectable="0" vertex="1">
                    <mxGeometry relative="1" as="geometry"/>
                </mxCell>
                <mxCell id="79" value="" style="endArrow=classic;html=1;entryX=0;entryY=1;entryDx=0;entryDy=0;" parent="1" target="6" edge="1">
                    <mxGeometry relative="1" as="geometry">
                        <mxPoint x="-300" y="699" as="sourcePoint"/>
                        <mxPoint x="-200" y="699" as="targetPoint"/>
                    </mxGeometry>
                </mxCell>
                <mxCell id="80" value="extends" style="edgeLabel;resizable=0;html=1;align=center;verticalAlign=middle;" parent="79" connectable="0" vertex="1">
                    <mxGeometry relative="1" as="geometry"/>
                </mxCell>
                <mxCell id="81" value="" style="endArrow=classic;html=1;entryX=0;entryY=1;entryDx=0;entryDy=0;exitX=1;exitY=0.5;exitDx=0;exitDy=0;" parent="1" source="59" target="6" edge="1">
                    <mxGeometry relative="1" as="geometry">
                        <mxPoint x="-450" y="700" as="sourcePoint"/>
                        <mxPoint x="-350" y="700" as="targetPoint"/>
                    </mxGeometry>
                </mxCell>
                <mxCell id="82" value="extends" style="edgeLabel;resizable=0;html=1;align=center;verticalAlign=middle;" parent="81" connectable="0" vertex="1">
                    <mxGeometry relative="1" as="geometry"/>
                </mxCell>
                <mxCell id="83" value="" style="endArrow=classic;html=1;entryX=0;entryY=0.5;entryDx=0;entryDy=0;exitX=1;exitY=0.5;exitDx=0;exitDy=0;" parent="1" source="61" target="6" edge="1">
                    <mxGeometry relative="1" as="geometry">
                        <mxPoint x="-450" y="619.5" as="sourcePoint"/>
                        <mxPoint x="-350" y="619.5" as="targetPoint"/>
                    </mxGeometry>
                </mxCell>
                <mxCell id="84" value="include" style="edgeLabel;resizable=0;html=1;align=center;verticalAlign=middle;" parent="83" connectable="0" vertex="1">
                    <mxGeometry relative="1" as="geometry"/>
                </mxCell>
                <mxCell id="85" value="" style="endArrow=classic;html=1;entryX=0;entryY=0.5;entryDx=0;entryDy=0;exitX=1;exitY=0.5;exitDx=0;exitDy=0;" parent="1" source="58" target="6" edge="1">
                    <mxGeometry relative="1" as="geometry">
                        <mxPoint x="-450" y="439.5" as="sourcePoint"/>
                        <mxPoint x="-350" y="439.5" as="targetPoint"/>
                    </mxGeometry>
                </mxCell>
                <mxCell id="86" value="include" style="edgeLabel;resizable=0;html=1;align=center;verticalAlign=middle;" parent="85" connectable="0" vertex="1">
                    <mxGeometry relative="1" as="geometry"/>
                </mxCell>
                <mxCell id="87" value="" style="endArrow=classic;html=1;entryX=0;entryY=0.5;entryDx=0;entryDy=0;exitX=1;exitY=0.5;exitDx=0;exitDy=0;" parent="1" source="64" target="6" edge="1">
                    <mxGeometry relative="1" as="geometry">
                        <mxPoint x="-450" y="529.5" as="sourcePoint"/>
                        <mxPoint x="-350" y="529.5" as="targetPoint"/>
                    </mxGeometry>
                </mxCell>
                <mxCell id="88" value="include" style="edgeLabel;resizable=0;html=1;align=center;verticalAlign=middle;" parent="87" connectable="0" vertex="1">
                    <mxGeometry relative="1" as="geometry"/>
                </mxCell>
                <mxCell id="90" value="quản lí hủy vé" style="ellipse;whiteSpace=wrap;html=1;" parent="1" vertex="1">
                    <mxGeometry x="-75" y="-30" width="120" height="80" as="geometry"/>
                </mxCell>
                <mxCell id="91" value="" style="endArrow=classic;html=1;entryX=1;entryY=1;entryDx=0;entryDy=0;" parent="1" target="90" edge="1">
                    <mxGeometry width="50" height="50" relative="1" as="geometry">
                        <mxPoint x="120" y="200" as="sourcePoint"/>
                        <mxPoint x="170" y="150" as="targetPoint"/>
                    </mxGeometry>
                </mxCell>
                <mxCell id="93" value="thời gian đặt vé" style="rounded=1;whiteSpace=wrap;html=1;" parent="1" vertex="1">
                    <mxGeometry x="-570" y="700" width="120" height="60" as="geometry"/>
                </mxCell>
                <mxCell id="94" value="" style="endArrow=classic;html=1;entryX=0;entryY=1;entryDx=0;entryDy=0;" parent="1" target="6" edge="1">
                    <mxGeometry relative="1" as="geometry">
                        <mxPoint x="-460" y="700" as="sourcePoint"/>
                        <mxPoint x="-360" y="700" as="targetPoint"/>
                    </mxGeometry>
                </mxCell>
                <mxCell id="95" value="include" style="edgeLabel;resizable=0;html=1;align=center;verticalAlign=middle;" parent="94" connectable="0" vertex="1">
                    <mxGeometry relative="1" as="geometry"/>
                </mxCell>
                <mxCell id="97" value="mã khách hàng" style="rounded=1;whiteSpace=wrap;html=1;" parent="1" vertex="1">
                    <mxGeometry x="-430" y="-280" width="120" height="60" as="geometry"/>
                </mxCell>
                <mxCell id="98" value="thông tin chuyến bay" style="rounded=1;whiteSpace=wrap;html=1;" parent="1" vertex="1">
                    <mxGeometry x="-600" y="-20" width="120" height="60" as="geometry"/>
                </mxCell>
                <mxCell id="99" value="mã nhân viên" style="rounded=1;whiteSpace=wrap;html=1;" parent="1" vertex="1">
                    <mxGeometry x="-90" y="-280" width="120" height="60" as="geometry"/>
                </mxCell>
                <mxCell id="100" value="tên nhân viên" style="rounded=1;whiteSpace=wrap;html=1;" parent="1" vertex="1">
                    <mxGeometry x="60" y="-280" width="120" height="60" as="geometry"/>
                </mxCell>
                <mxCell id="101" value="tên khách hàng" style="rounded=1;whiteSpace=wrap;html=1;" parent="1" vertex="1">
                    <mxGeometry x="-250" y="-280" width="120" height="60" as="geometry"/>
                </mxCell>
                <mxCell id="102" value="hoàn tiền" style="rounded=1;whiteSpace=wrap;html=1;" parent="1" vertex="1">
                    <mxGeometry x="-600" y="-190" width="120" height="60" as="geometry"/>
                </mxCell>
                <mxCell id="103" value="thời gian hủy vé" style="rounded=1;whiteSpace=wrap;html=1;" parent="1" vertex="1">
                    <mxGeometry x="-600" y="-280" width="120" height="60" as="geometry"/>
                </mxCell>
                <mxCell id="104" value="lí do hủy" style="rounded=1;whiteSpace=wrap;html=1;" parent="1" vertex="1">
                    <mxGeometry x="-600" y="-110" width="120" height="60" as="geometry"/>
                </mxCell>
                <mxCell id="106" value="" style="endArrow=classic;html=1;entryX=0.5;entryY=0;entryDx=0;entryDy=0;" parent="1" target="90" edge="1">
                    <mxGeometry relative="1" as="geometry">
                        <mxPoint x="110" y="-220" as="sourcePoint"/>
                        <mxPoint x="210" y="-220" as="targetPoint"/>
                    </mxGeometry>
                </mxCell>
                <mxCell id="107" value="include" style="edgeLabel;resizable=0;html=1;align=center;verticalAlign=middle;" parent="106" connectable="0" vertex="1">
                    <mxGeometry relative="1" as="geometry"/>
                </mxCell>
                <mxCell id="108" value="" style="endArrow=classic;html=1;entryX=0.5;entryY=0;entryDx=0;entryDy=0;" parent="1" target="90" edge="1">
                    <mxGeometry relative="1" as="geometry">
                        <mxPoint x="-30" y="-220" as="sourcePoint"/>
                        <mxPoint x="70" y="-220" as="targetPoint"/>
                    </mxGeometry>
                </mxCell>
                <mxCell id="109" value="include" style="edgeLabel;resizable=0;html=1;align=center;verticalAlign=middle;" parent="108" connectable="0" vertex="1">
                    <mxGeometry relative="1" as="geometry"/>
                </mxCell>
                <mxCell id="110" value="" style="endArrow=classic;html=1;entryX=0;entryY=0;entryDx=0;entryDy=0;" parent="1" target="90" edge="1">
                    <mxGeometry relative="1" as="geometry">
                        <mxPoint x="-190" y="-221.25" as="sourcePoint"/>
                        <mxPoint x="-60" y="-40" as="targetPoint"/>
                    </mxGeometry>
                </mxCell>
                <mxCell id="111" value="include" style="edgeLabel;resizable=0;html=1;align=center;verticalAlign=middle;" parent="110" connectable="0" vertex="1">
                    <mxGeometry relative="1" as="geometry"/>
                </mxCell>
                <mxCell id="112" value="" style="endArrow=classic;html=1;entryX=0;entryY=0;entryDx=0;entryDy=0;" parent="1" target="90" edge="1">
                    <mxGeometry relative="1" as="geometry">
                        <mxPoint x="-370" y="-220" as="sourcePoint"/>
                        <mxPoint x="-270" y="-220" as="targetPoint"/>
                    </mxGeometry>
                </mxCell>
                <mxCell id="113" value="include" style="edgeLabel;resizable=0;html=1;align=center;verticalAlign=middle;" parent="112" connectable="0" vertex="1">
                    <mxGeometry relative="1" as="geometry"/>
                </mxCell>
                <mxCell id="114" value="" style="endArrow=classic;html=1;entryX=0;entryY=0.5;entryDx=0;entryDy=0;" parent="1" target="90" edge="1">
                    <mxGeometry relative="1" as="geometry">
                        <mxPoint x="-480" y="9.380000000000003" as="sourcePoint"/>
                        <mxPoint x="-380" y="9.380000000000003" as="targetPoint"/>
                    </mxGeometry>
                </mxCell>
                <mxCell id="115" value="include" style="edgeLabel;resizable=0;html=1;align=center;verticalAlign=middle;" parent="114" connectable="0" vertex="1">
                    <mxGeometry relative="1" as="geometry"/>
                </mxCell>
                <mxCell id="116" value="" style="endArrow=classic;html=1;entryX=0;entryY=0.5;entryDx=0;entryDy=0;" parent="1" target="90" edge="1">
                    <mxGeometry relative="1" as="geometry">
                        <mxPoint x="-480" y="-80.62" as="sourcePoint"/>
                        <mxPoint x="-380" y="-80.62" as="targetPoint"/>
                    </mxGeometry>
                </mxCell>
                <mxCell id="117" value="extends" style="edgeLabel;resizable=0;html=1;align=center;verticalAlign=middle;" parent="116" connectable="0" vertex="1">
                    <mxGeometry relative="1" as="geometry"/>
                </mxCell>
                <mxCell id="118" value="" style="endArrow=classic;html=1;entryX=0;entryY=0.5;entryDx=0;entryDy=0;" parent="1" target="90" edge="1">
                    <mxGeometry relative="1" as="geometry">
                        <mxPoint x="-480" y="-160.62" as="sourcePoint"/>
                        <mxPoint x="-380" y="-160.62" as="targetPoint"/>
                    </mxGeometry>
                </mxCell>
                <mxCell id="119" value="include" style="edgeLabel;resizable=0;html=1;align=center;verticalAlign=middle;" parent="118" connectable="0" vertex="1">
                    <mxGeometry relative="1" as="geometry"/>
                </mxCell>
                <mxCell id="120" value="" style="endArrow=classic;html=1;entryX=0;entryY=0.5;entryDx=0;entryDy=0;" parent="1" target="90" edge="1">
                    <mxGeometry relative="1" as="geometry">
                        <mxPoint x="-480" y="-221.25" as="sourcePoint"/>
                        <mxPoint x="-380" y="-221.25" as="targetPoint"/>
                    </mxGeometry>
                </mxCell>
                <mxCell id="121" value="iclude" style="edgeLabel;resizable=0;html=1;align=center;verticalAlign=middle;" parent="120" connectable="0" vertex="1">
                    <mxGeometry relative="1" as="geometry"/>
                </mxCell>
                <mxCell id="122" value="Actor" style="shape=umlActor;verticalLabelPosition=bottom;verticalAlign=top;html=1;outlineConnect=0;" vertex="1" parent="1">
                    <mxGeometry x="530" y="-580" width="30" height="60" as="geometry"/>
                </mxCell>
                <mxCell id="123" value="khách hàng" style="text;html=1;align=center;verticalAlign=middle;resizable=0;points=[];autosize=1;strokeColor=none;fillColor=none;" vertex="1" parent="1">
                    <mxGeometry x="500" y="-500" width="90" height="30" as="geometry"/>
                </mxCell>
                <mxCell id="124" value="thanh toán" style="ellipse;whiteSpace=wrap;html=1;" vertex="1" parent="1">
                    <mxGeometry x="560" y="-760" width="120" height="80" as="geometry"/>
                </mxCell>
                <mxCell id="125" value="cập nhật thông tin cá nhân" style="ellipse;whiteSpace=wrap;html=1;" vertex="1" parent="1">
                    <mxGeometry x="160" y="-760" width="120" height="80" as="geometry"/>
                </mxCell>
                <mxCell id="126" value="xem thông tin cá nhân" style="ellipse;whiteSpace=wrap;html=1;" vertex="1" parent="1">
                    <mxGeometry x="360" y="-760" width="120" height="80" as="geometry"/>
                </mxCell>
                <mxCell id="127" value="hủy vé" style="ellipse;whiteSpace=wrap;html=1;" vertex="1" parent="1">
                    <mxGeometry x="160" y="-640" width="120" height="80" as="geometry"/>
                </mxCell>
                <mxCell id="128" value="đặt vé" style="ellipse;whiteSpace=wrap;html=1;" vertex="1" parent="1">
                    <mxGeometry x="760" y="-760" width="120" height="80" as="geometry"/>
                </mxCell>
                <mxCell id="129" value="đăng nhập" style="ellipse;whiteSpace=wrap;html=1;" vertex="1" parent="1">
                    <mxGeometry x="280" y="-320" width="120" height="80" as="geometry"/>
                </mxCell>
                <mxCell id="130" value="" style="endArrow=classic;html=1;entryX=0;entryY=1;entryDx=0;entryDy=0;" edge="1" parent="1" target="129">
                    <mxGeometry width="50" height="50" relative="1" as="geometry">
                        <mxPoint x="130" y="160" as="sourcePoint"/>
                        <mxPoint x="180" y="110" as="targetPoint"/>
                    </mxGeometry>
                </mxCell>
                <mxCell id="131" value="" style="endArrow=classic;html=1;entryX=1;entryY=0;entryDx=0;entryDy=0;" edge="1" parent="1" target="129">
                    <mxGeometry width="50" height="50" relative="1" as="geometry">
                        <mxPoint x="540" y="-540" as="sourcePoint"/>
                        <mxPoint x="590" y="-590" as="targetPoint"/>
                    </mxGeometry>
                </mxCell>
            </root>
        </mxGraphModel>
    </diagram>
</mxfile>